<svg width="430" height="430" viewBox="0 0 430 430" fill="none" xmlns="http://www.w3.org/2000/svg">
<path d="M385.95 88.85L373.63 88.84L365.19 88.83L365.2 67.75C365.2 64.44 362.52 61.75 359.2 61.75C355.89 61.75 353.2 64.43 353.2 67.75L353.19 88.83L338.96 88.82L325.79 88.81L325.8 67.73C325.8 64.42 323.12 61.73 319.8 61.73C316.49 61.73 313.8 64.41 313.8 67.73L313.79 88.81L293.03 88.8C289.72 88.8 287.03 91.48 287.03 94.8C287.03 98.11 289.71 100.8 293.03 100.8H299.35L299.33 126.32C299.32 146.42 314.15 163.12 333.45 166.03L333.43 197.04C333.43 200.35 336.11 203.04 339.43 203.04C342.74 203.04 345.43 200.36 345.43 197.04L345.45 166.03C364.75 163.14 379.6 146.45 379.62 126.36L379.64 100.84H385.96C389.27 100.84 391.96 98.16 391.96 94.84C391.95 91.54 389.27 88.85 385.95 88.85ZM367.63 100.84L367.61 126.36C367.6 141.87 354.98 154.49 339.47 154.49C339.47 154.49 339.46 154.49 339.45 154.49C323.93 154.48 311.32 141.85 311.32 126.33L311.34 100.81L339.51 100.83L367.63 100.84Z" fill="#FF0043"/>
<path d="M396.66 300.6H364.45C351.81 300.6 341.53 290.32 341.53 277.68C341.53 271.55 343.91 265.79 348.24 261.47C352.57 257.14 358.33 254.75 364.45 254.75H379.3C382.61 254.75 385.3 257.44 385.3 260.75C385.3 264.06 382.61 266.75 379.3 266.75H364.45C361.53 266.75 358.79 267.89 356.72 269.96C354.66 272.02 353.53 274.76 353.53 277.69C353.53 283.71 358.43 288.61 364.45 288.61H396.66C399.97 288.61 402.66 291.3 402.66 294.61C402.66 297.92 399.98 300.6 396.66 300.6Z" fill="#FF0043"/>
<path d="M58.11 298.66H31.53C28.22 298.66 25.53 295.97 25.53 292.66C25.53 289.35 28.22 286.66 31.53 286.66H58.1C61.41 286.66 64.1 289.35 64.1 292.66C64.1 295.97 61.42 298.66 58.11 298.66Z" fill="#FF0043"/>
<path d="M323.71 229.96H315.43L261.74 152.96C257.75 147 250.48 143.05 242.29 142.22C242.19 142.21 242.09 142.2 241.98 142.19C241.01 142.1 240.03 142.05 239.04 142.05H124.52C123.19 142.05 121.89 142.14 120.61 142.3C120.24 142.32 119.88 142.36 119.53 142.45C109.46 144.01 101.44 150.23 99.22 158.67L77.37 230.35C48.25 233.63 25.53 258.4 25.53 288.38V330.33C25.53 333.64 28.22 336.33 31.53 336.33H80.26C83.14 354.41 98.85 368.28 117.73 368.28C136.61 368.28 152.31 354.42 155.2 336.34H273.33C276.22 354.42 291.92 368.28 310.8 368.28C329.68 368.28 345.38 354.41 348.27 336.33H398.47C401.78 336.33 404.47 333.64 404.47 330.33V310.72C404.47 266.18 368.24 229.96 323.71 229.96ZM251.78 159.66C251.8 159.7 251.83 159.73 251.85 159.77L300.79 229.95H247.57V156.04C249.35 156.98 250.81 158.21 251.78 159.66ZM126.89 154.05H235.57V229.95H126.89V154.05ZM110.73 162.04C110.76 161.95 110.78 161.86 110.81 161.77C111.32 159.78 112.8 158.02 114.89 156.68V229.95H90.03L110.73 162.04ZM143.68 330.57C143.54 344.76 131.96 356.27 117.74 356.27C103.47 356.27 91.86 344.69 91.8 330.44C91.8 330.4 91.81 330.36 91.81 330.32C91.81 330.28 91.8 330.24 91.8 330.2C91.86 315.95 103.48 304.37 117.74 304.37C131.97 304.37 143.55 315.88 143.68 330.08C143.68 330.16 143.67 330.24 143.67 330.33C143.67 330.41 143.67 330.49 143.68 330.57ZM310.8 356.27C296.51 356.27 284.89 344.66 284.85 330.38C284.85 330.36 284.85 330.35 284.85 330.33C284.85 330.31 284.85 330.29 284.85 330.28C284.87 315.99 296.5 304.38 310.8 304.38C325.1 304.38 336.74 316.02 336.75 330.32C336.75 330.32 336.75 330.32 336.75 330.33C336.75 330.33 336.75 330.33 336.75 330.34C336.75 344.63 325.11 356.27 310.8 356.27ZM392.47 324.32H348.27C345.38 306.24 329.68 292.37 310.8 292.37C291.91 292.37 276.21 306.24 273.33 324.33H155.21C152.33 306.24 136.63 292.37 117.74 292.37C98.86 292.37 83.16 306.23 80.27 324.32H37.53V288.37C37.53 262.78 58.35 241.96 83.94 241.96H323.7C361.62 241.96 392.46 272.8 392.46 310.71V324.32H392.47Z" fill="#121331"/>
<path d="M219.56 279.83H197.11C193.8 279.83 191.11 277.14 191.11 273.83C191.11 270.52 193.8 267.83 197.11 267.83H219.56C222.87 267.83 225.56 270.52 225.56 273.83C225.56 277.14 222.87 279.83 219.56 279.83Z" fill="#121331"/>
<path d="M117.74 336.32H117.73C114.42 336.32 111.73 333.63 111.73 330.32C111.73 327.01 114.42 324.32 117.73 324.32C121.04 324.32 123.74 327.01 123.74 330.32C123.74 333.63 121.06 336.32 117.74 336.32Z" fill="#121331"/>
<path d="M310.81 336.32H310.8C307.49 336.32 304.8 333.63 304.8 330.32C304.8 327.01 307.49 324.32 310.8 324.32C314.11 324.32 316.81 327.01 316.81 330.32C316.81 333.63 314.12 336.32 310.81 336.32Z" fill="#121331"/>
</svg>
