<svg width="430" height="430" viewBox="0 0 430 430" fill="none" xmlns="http://www.w3.org/2000/svg">
<path d="M348.11 268.78C341.01 268.78 333.94 265.91 328.8 260.26L276.97 203.31C274.54 200.64 269.74 198.23 264.48 198.87C262.42 199.12 259.2 200.4 257.04 202.37C254.95 204.27 253.49 206.76 252.83 209.55C251.83 213.81 252.8 218.2 255.5 221.58C264.14 232.43 262.97 248.16 252.83 257.37C247.7 262.04 241.02 264.44 234.04 264.11C227.06 263.78 220.64 260.77 215.96 255.64L172.65 206.53C170.46 204.04 170.7 200.25 173.18 198.06C175.67 195.87 179.46 196.11 181.65 198.59L224.9 247.63C227.36 250.33 230.83 251.95 234.61 252.12C238.39 252.29 242 251.01 244.76 248.49C250.15 243.59 250.75 234.87 246.12 229.04C241.12 222.76 239.32 214.65 241.16 206.78C242.38 201.61 245.08 197.01 248.97 193.47C252.75 190.03 258.14 187.53 263.04 186.93C273.19 185.7 281.48 190.4 285.85 195.21L337.68 252.16C342.92 257.91 351.85 258.33 357.6 253.09C363.35 247.85 363.77 238.91 358.54 233.16L238.94 100.52C236.72 98.06 236.92 94.27 239.38 92.05C241.84 89.83 245.64 90.03 247.85 92.49L367.42 225.14C377.08 235.76 376.3 252.31 365.66 261.99C360.68 266.54 354.38 268.78 348.11 268.78Z" fill="#FF0043"/>
<path d="M163.98 213.82C162.5 213.82 161.02 213.49 159.65 212.83C157.06 211.58 155.13 209.28 154.36 206.51L133.43 131.18C132.41 127.51 133.6 123.51 136.47 120.99L225.62 42.9701C230.36 38.8201 236.84 37.9401 242.52 40.6701C248.2 43.4001 251.55 49.0201 251.26 55.3101L245.88 173.66C245.71 177.47 243.33 180.9 239.82 182.39L167.88 213.02C166.64 213.56 165.31 213.82 163.98 213.82ZM145.33 129.19L165.3 201.09L233.96 171.86L239.29 54.7801C239.38 52.7101 237.95 51.7901 237.33 51.4901C236.71 51.1901 235.09 50.6401 233.54 52.0101L145.33 129.19Z" fill="#121331"/>
<path d="M148.31 242.37C147.44 242.37 146.55 242.18 145.71 241.78C142.72 240.34 141.47 236.76 142.91 233.77L181.84 152.91C183.28 149.92 186.86 148.67 189.85 150.11C192.84 151.55 194.09 155.13 192.65 158.12L153.72 238.98C152.69 241.12 150.55 242.37 148.31 242.37Z" fill="#121331"/>
<path d="M162.04 282.71C158.95 282.71 155.88 282.02 153.02 280.64L110.8 260.31C105.78 257.89 102 253.65 100.15 248.37C98.2998 243.09 98.6098 237.41 101.03 232.39L101.67 231.06C106.67 220.67 119.2 216.28 129.59 221.28L171.81 241.61C176.83 244.03 180.61 248.27 182.46 253.55C184.31 258.83 184 264.51 181.58 269.53L180.94 270.86C178.52 275.88 174.28 279.66 169 281.51C166.72 282.31 164.37 282.71 162.04 282.71ZM158.22 269.82C160.35 270.85 162.77 270.98 165.03 270.19C167.29 269.4 169.1 267.79 170.13 265.66L170.77 264.33C171.8 262.2 171.93 259.78 171.13 257.52C170.34 255.26 168.73 253.45 166.6 252.42L124.38 232.09C119.95 229.96 114.61 231.83 112.47 236.26L111.83 237.59C110.8 239.72 110.67 242.14 111.47 244.4C112.26 246.66 113.87 248.47 116 249.5L158.22 269.82Z" fill="#121331"/>
<path d="M90.6999 390.87C85.6199 390.87 80.4799 389.76 75.6099 387.42C67.1999 383.37 60.8799 376.29 57.7999 367.49C54.7199 358.68 55.2499 349.21 59.2999 340.8L103.62 248.75C105.06 245.76 108.64 244.51 111.63 245.95C114.62 247.39 115.87 250.97 114.43 253.96L70.0999 346C64.6199 357.39 69.4199 371.12 80.8099 376.6C92.1999 382.08 105.93 377.28 111.41 365.89L155.73 273.84C157.17 270.85 160.75 269.6 163.74 271.04C166.73 272.48 167.98 276.06 166.54 279.05L122.22 371.1C116.21 383.58 103.7 390.87 90.6999 390.87Z" fill="#121331"/>
</svg>
