<svg width="430" height="430" viewBox="0 0 430 430" fill="none" xmlns="http://www.w3.org/2000/svg">
<path d="M201.21 111.23C200.25 111.23 199.28 111 198.41 110.54C196.9 109.74 195.8 108.34 195.39 106.69L189.51 83.22C189.1 81.57 189.4 79.82 190.35 78.41C191.3 77 192.81 76.06 194.49 75.82L221.56 72.02C224.63 71.59 227.51 73.56 228.23 76.56L232.51 94.4C233.22 97.35 231.61 100.37 228.76 101.43L203.3 110.86C202.62 111.1 201.91 111.23 201.21 111.23ZM202.76 86.77L205.39 97.28L219.59 92.03L217.82 84.66L202.76 86.77Z" fill="#FF0043"/>
<path d="M241.6 186.12C212.81 186.12 190.14 170.42 168.97 136.21C167.23 133.39 168.1 129.69 170.92 127.95C173.74 126.21 177.44 127.08 179.18 129.9C195.9 156.92 211.67 168.13 226.06 172.18C205.44 153.23 189.13 121.97 188.23 120.22C186.71 117.28 187.86 113.66 190.81 112.14C193.75 110.62 197.37 111.77 198.89 114.72C206.45 129.34 230.53 168.47 250.98 173.94C253.78 174.69 255.65 177.33 255.41 180.22C255.17 183.11 252.91 185.42 250.02 185.7C247.17 185.97 244.36 186.12 241.6 186.12Z" fill="#FF0043"/>
<path d="M113.27 165.6C109.96 165.6 107.27 162.91 107.27 159.6C107.27 148.11 81.5399 137.32 69.0799 133.89C66.5999 133.21 64.8299 131.02 64.6799 128.45C64.5299 125.88 66.0399 123.5 68.4299 122.54L192.2 72.69C193.81 72.04 195.62 72.12 197.16 72.91C198.7 73.7 199.83 75.12 200.26 76.8L208.3 108.86C208.87 111.14 208.06 113.54 206.23 115L155.93 155.25C153.34 157.32 149.57 156.9 147.5 154.31C145.43 151.72 145.85 147.95 148.44 145.88L195.73 108.03L190.3 86.38L87.6399 127.74C101.44 133.61 119.27 144.18 119.27 159.6C119.27 162.91 116.59 165.6 113.27 165.6Z" fill="#121331"/>
<path d="M165.92 165.23H158.32V152.87C158.32 138.8 146.87 127.35 132.8 127.35C118.73 127.35 107.28 138.8 107.28 152.87V165.23H99.03C95.72 165.23 93.03 167.92 93.03 171.23V193.74C93.03 197.05 95.72 199.74 99.03 199.74C102.34 199.74 105.03 197.05 105.03 193.74V177.23H159.92V193.74C159.92 197.05 162.61 199.74 165.92 199.74C169.23 199.74 171.92 197.05 171.92 193.74V171.23C171.92 167.92 169.24 165.23 165.92 165.23ZM119.27 152.87C119.27 145.41 125.34 139.35 132.79 139.35C140.24 139.35 146.31 145.42 146.31 152.87V165.23H119.26V152.87H119.27Z" fill="#FF0043"/>
<path d="M253.72 73.24C251.14 73.24 248.75 71.56 247.97 68.95C247.02 65.78 248.83 62.43 252 61.48L256.79 60.05C259.96 59.1 263.31 60.91 264.26 64.08C265.21 67.25 263.4 70.6 260.23 71.55L255.44 72.98C254.86 73.16 254.29 73.24 253.72 73.24Z" fill="#121331"/>
<path d="M285.19 63.8499C282.61 63.8499 280.22 62.1699 279.44 59.5599C278.49 56.3799 280.3 53.0399 283.47 52.0899L294.14 48.9099C297.32 47.9699 300.66 49.7699 301.61 52.9399C302.56 56.1199 300.75 59.4599 297.58 60.4099L286.9 63.5999C286.33 63.7699 285.75 63.8499 285.19 63.8499Z" fill="#121331"/>
<path d="M322.53 52.71C319.95 52.71 317.56 51.03 316.78 48.42C315.83 45.24 317.64 41.9 320.81 40.96L325.6 39.53C328.78 38.58 332.12 40.39 333.06 43.56C334.01 46.74 332.2 50.08 329.03 51.02L324.24 52.45C323.68 52.62 323.1 52.71 322.53 52.71Z" fill="#121331"/>
<path d="M327.33 129.08C326.76 129.08 326.18 129 325.61 128.83L320.82 127.4C317.65 126.45 315.84 123.11 316.79 119.94C317.74 116.77 321.07 114.96 324.25 115.91L329.04 117.34C332.21 118.29 334.02 121.63 333.07 124.8C332.3 127.39 329.91 129.08 327.33 129.08Z" fill="#121331"/>
<path d="M295.86 119.69C295.29 119.69 294.71 119.61 294.14 119.44L283.47 116.26C280.29 115.31 278.49 111.97 279.44 108.8C280.39 105.63 283.73 103.82 286.9 104.77L297.57 107.95C300.75 108.9 302.55 112.24 301.6 115.41C300.83 118 298.44 119.69 295.86 119.69Z" fill="#121331"/>
<path d="M258.51 108.54C257.94 108.54 257.36 108.46 256.79 108.29L252 106.86C248.83 105.91 247.02 102.57 247.97 99.4001C248.92 96.2301 252.26 94.4201 255.43 95.3701L260.22 96.8001C263.39 97.7501 265.2 101.09 264.25 104.26C263.48 106.86 261.1 108.54 258.51 108.54Z" fill="#121331"/>
<path d="M359.33 90.1699H352.66C349.35 90.1699 346.66 87.4799 346.66 84.1699C346.66 80.8599 349.35 78.1699 352.66 78.1699H359.33C362.64 78.1699 365.33 80.8599 365.33 84.1699C365.33 87.4799 362.64 90.1699 359.33 90.1699ZM327.66 90.1699H317.66C314.35 90.1699 311.66 87.4799 311.66 84.1699C311.66 80.8599 314.35 78.1699 317.66 78.1699H327.66C330.97 78.1699 333.66 80.8599 333.66 84.1699C333.66 87.4799 330.97 90.1699 327.66 90.1699ZM292.66 90.1699H282.66C279.35 90.1699 276.66 87.4799 276.66 84.1699C276.66 80.8599 279.35 78.1699 282.66 78.1699H292.66C295.97 78.1699 298.66 80.8599 298.66 84.1699C298.66 87.4799 295.97 90.1699 292.66 90.1699Z" fill="#121331"/>
<path d="M184.75 390.73H80.2C78.51 390.73 76.89 390.01 75.75 388.76C74.61 387.51 74.06 385.83 74.23 384.14L93.05 193.16C93.35 190.09 95.93 187.75 99.02 187.75H165.94C169.03 187.75 171.61 190.09 171.91 193.16L190.73 384.14C190.9 385.83 190.34 387.5 189.21 388.76C188.06 390.01 186.45 390.73 184.75 390.73ZM86.82 378.73H178.14L160.5 199.75H104.46L86.82 378.73Z" fill="#121331"/>
</svg>
