<svg width="430" height="430" viewBox="0 0 430 430" fill="none" xmlns="http://www.w3.org/2000/svg">
<path d="M137.86 297.97C128.42 297.97 120.67 290.36 120.53 280.89L120.49 278.14C120.42 273.51 122.16 269.13 125.39 265.81C128.62 262.49 132.94 260.62 137.57 260.56L176.22 260C176.25 260 176.28 260 176.31 260C179.58 260 182.26 262.63 182.31 265.91L182.68 291.33C182.7 292.92 182.09 294.46 180.98 295.6C179.87 296.74 178.35 297.4 176.76 297.42L138.11 297.98C138.04 297.97 137.95 297.97 137.86 297.97ZM170.4 272.07L137.75 272.54C136.33 272.56 134.99 273.13 134 274.16C133.01 275.18 132.47 276.53 132.49 277.95L132.53 280.7C132.57 283.64 135.01 285.98 137.94 285.95L170.59 285.48L170.4 272.07Z" fill="#121331"/>
<path d="M269.18 296.06C265.91 296.06 263.23 293.43 263.18 290.15L262.81 264.73C262.79 263.14 263.4 261.6 264.51 260.46C265.62 259.32 267.14 258.66 268.73 258.64L307.38 258.08C307.46 258.08 307.55 258.08 307.64 258.08C317.08 258.08 324.83 265.69 324.97 275.16L325.01 277.91C325.15 287.47 317.49 295.35 307.93 295.49L269.28 296.05C269.24 296.06 269.21 296.06 269.18 296.06ZM274.9 270.56L275.09 283.98L307.74 283.51C310.68 283.47 313.04 281.04 313 278.1L312.96 275.35C312.92 272.41 310.45 270.04 307.55 270.09L274.9 270.56Z" fill="#121331"/>
<path d="M357.64 325.04L345.32 253.5C343.22 241.3 332.91 232.57 320.8 232.74L317.98 232.78L301.33 149C298.57 135.12 287.01 125.24 273.87 125.38L167.22 126.93C154.07 127.12 142.81 137.39 140.46 151.34L138.92 160.47C138.37 163.74 140.57 166.83 143.84 167.38C147.11 167.93 150.2 165.73 150.75 162.46L152.29 153.33C153.68 145.09 160.03 139.03 167.39 138.93L274.04 137.38C281.42 137.3 287.93 143.14 289.55 151.34L305.77 232.97L138.43 235.4L140.24 224.68C140.79 221.41 138.59 218.32 135.32 217.77C132.05 217.22 128.96 219.42 128.41 222.69L126.24 235.58L123.42 235.62C111.31 235.8 101.26 244.82 99.51 257.08L89.27 328.94C89.02 330.68 89.55 332.43 90.71 333.75C91.85 335.04 93.49 335.79 95.21 335.79C95.24 335.79 95.27 335.79 95.3 335.79L109.21 335.59L109.62 363.67C109.67 366.95 112.34 369.58 115.62 369.58C115.65 369.58 115.68 369.58 115.71 369.58L170.98 368.78C172.57 368.76 174.09 368.1 175.2 366.96C176.31 365.82 176.92 364.28 176.9 362.69L176.49 334.61L270.67 333.24L271.08 361.32C271.13 364.6 273.8 367.23 277.08 367.23C277.11 367.23 277.14 367.23 277.17 367.23L332.44 366.43C334.03 366.41 335.55 365.75 336.66 364.61C337.77 363.47 338.38 361.93 338.36 360.34L337.95 332.26L351.86 332.06C353.61 332.03 355.27 331.24 356.39 329.89C357.47 328.54 357.94 326.77 357.64 325.04ZM121.52 357.48L121.2 335.4L164.47 334.77L164.79 356.85L121.52 357.48ZM282.96 355.14L282.64 333.06L325.91 332.43L326.23 354.51L282.96 355.14ZM331.84 320.35C331.81 320.35 331.77 320.35 331.74 320.35C331.7 320.35 331.67 320.36 331.64 320.36L276.57 321.16C276.54 321.16 276.51 321.16 276.48 321.16C276.45 321.16 276.41 321.17 276.38 321.17L170.4 322.71C170.37 322.71 170.33 322.71 170.3 322.71C170.27 322.71 170.24 322.72 170.21 322.72L115.13 323.52C115.1 323.52 115.07 323.52 115.03 323.52C115 323.52 114.96 323.53 114.93 323.53L102.14 323.72L111.39 258.81C112.3 252.44 117.43 247.75 123.59 247.66L320.97 244.8C327.15 244.72 332.4 249.25 333.49 255.59L344.62 320.21L331.84 320.35Z" fill="#121331"/>
<path d="M200.03 310.71C196.76 310.71 194.08 308.08 194.03 304.8C193.98 301.49 196.63 298.76 199.94 298.71L246.13 298.04C249.42 297.99 252.17 300.64 252.22 303.95C252.27 307.26 249.62 309.99 246.31 310.04L200.12 310.71C200.09 310.71 200.06 310.71 200.03 310.71Z" fill="#121331"/>
<path d="M102.69 230.89C101.94 230.89 101.18 230.75 100.46 230.46C83.5999 223.7 72.5399 207.59 72.2799 189.43C72.0699 175.22 78.4999 161.96 89.6199 153.33L88.3699 67.1299C88.3199 63.8199 90.9699 61.0899 94.2799 61.0399C97.5599 61.0099 100.32 63.6399 100.37 66.9499L101.67 156.28C101.7 158.32 100.69 160.23 98.9899 161.36C89.6199 167.59 84.1199 178.02 84.2799 189.25C84.4199 199.24 89.0299 208.38 96.5399 214.42L96.1199 185.72C96.0799 183.19 97.6399 180.9 100.02 180.01L114.95 174.42C116.25 173.94 117.67 173.92 118.99 174.36L134.07 179.51C136.47 180.33 138.09 182.57 138.13 185.1L138.55 213.8C145.89 207.55 150.22 198.28 150.08 188.29C149.92 177.06 144.12 166.79 134.57 160.84C132.84 159.76 131.78 157.88 131.75 155.84L130.45 66.5099C130.4 63.1999 133.05 60.4699 136.36 60.4199C139.64 60.3999 142.4 63.0199 142.45 66.3299L143.7 152.53C155.06 160.84 161.87 173.91 162.08 188.11C162.34 206.27 151.75 222.69 135.1 229.94C133.26 230.74 131.14 230.57 129.45 229.48C127.76 228.39 126.73 226.53 126.7 224.52L126.19 189.5L117.14 186.41L108.19 189.76L108.7 224.78C108.73 226.79 107.75 228.68 106.1 229.81C105.07 230.53 103.88 230.89 102.69 230.89Z" fill="#FF0043"/>
</svg>
