<svg width="430" height="430" viewBox="0 0 430 430" fill="none" xmlns="http://www.w3.org/2000/svg">
<path d="M360.17 141.28C348.25 141.28 338.55 150.98 338.55 162.9V222.56C337.75 222.22 336.93 221.91 336.07 221.65C326.21 218.71 312.49 222.22 308.36 227.07L264.27 276.98C263.3 278.08 262.77 279.49 262.77 280.95V329.27H248.78C246.77 329.27 244.88 330.28 243.77 331.96C242.66 333.64 242.47 335.77 243.26 337.62L263.25 384.49C264.19 386.7 266.36 388.14 268.77 388.14H339.98C343.29 388.14 345.98 385.45 345.98 382.14V335.27C345.98 331.96 343.29 329.27 339.98 329.27H331.4V314.82L380.34 257.79C381.27 256.7 381.79 255.32 381.79 253.88V162.89C381.79 150.97 372.09 141.28 360.17 141.28ZM333.97 376.14H272.73L257.86 341.27H333.98V376.14H333.97ZM369.79 251.66L320.85 308.69C319.92 309.78 319.4 311.16 319.4 312.6V329.27H274.77V283.22L317.31 235.07C319.42 233.61 328.29 231.17 333.83 233.57C335.32 234.22 337.25 235.46 338.17 238.87L310.06 271.19C307.89 273.69 308.15 277.48 310.65 279.65C313.15 281.82 316.94 281.56 319.11 279.06L349.09 244.59C349.1 244.58 349.11 244.56 349.12 244.54C349.32 244.3 349.51 244.04 349.67 243.78C349.7 243.74 349.72 243.7 349.74 243.66C349.9 243.39 350.03 243.1 350.15 242.81C350.16 242.77 350.18 242.73 350.19 242.7C350.3 242.4 350.39 242.09 350.45 241.76C350.46 241.73 350.46 241.7 350.46 241.67C350.52 241.34 350.55 241 350.55 240.66V162.9C350.55 157.6 354.86 153.28 360.17 153.28C365.47 153.28 369.79 157.59 369.79 162.9V251.66Z" fill="#121331"/>
<path d="M186.23 331.97C185.12 330.29 183.24 329.28 181.22 329.28H167.23V280.96C167.23 279.5 166.7 278.08 165.73 276.99L121.64 227.08C117.51 222.23 103.79 218.72 93.93 221.66C93.06 221.92 92.24 222.23 91.45 222.57V162.91C91.45 150.99 81.75 141.29 69.83 141.29C57.91 141.29 48.21 150.99 48.21 162.91V253.9C48.21 255.33 48.72 256.72 49.66 257.81L98.6 314.84V329.29H90.02C86.71 329.29 84.02 331.98 84.02 335.29V382.16C84.02 385.47 86.71 388.16 90.02 388.16H161.23C163.63 388.16 165.81 386.73 166.75 384.51L186.74 337.64C187.53 335.77 187.34 333.65 186.23 331.97ZM109.16 308.69L60.22 251.66V162.89C60.22 157.59 64.53 153.27 69.84 153.27C75.14 153.27 79.46 157.58 79.46 162.89V240.65C79.46 240.99 79.49 241.33 79.55 241.66C79.55 241.69 79.56 241.72 79.56 241.75C79.62 242.07 79.71 242.38 79.82 242.69C79.83 242.73 79.85 242.77 79.86 242.8C79.97 243.1 80.11 243.38 80.27 243.65C80.29 243.69 80.32 243.73 80.34 243.77C80.5 244.04 80.69 244.29 80.89 244.53C80.9 244.54 80.91 244.56 80.92 244.58L110.9 279.05C113.07 281.55 116.86 281.82 119.36 279.64C121.86 277.47 122.12 273.68 119.95 271.18L91.84 238.86C92.76 235.46 94.69 234.21 96.18 233.56C101.71 231.16 110.58 233.6 112.7 235.06L155.24 283.21V329.26H110.6V312.6C110.6 311.17 110.09 309.78 109.16 308.69ZM157.27 376.14H96.03V341.27H172.15L157.27 376.14Z" fill="#121331"/>
<path d="M166.51 223.57C161.23 223.57 155.91 222.56 150.82 220.47C148.96 219.71 147.61 218.07 147.21 216.1C146.81 214.13 147.43 212.1 148.85 210.68L170.39 189.14L166.94 181.85L159.65 178.4L138.11 199.94C136.69 201.36 134.66 201.98 132.69 201.58C130.72 201.18 129.08 199.83 128.32 197.97C121.99 182.53 125.52 164.93 137.32 153.13C146.48 143.97 159.21 139.71 171.93 141.41L224.78 88.56C223.08 75.84 227.34 63.1 236.5 53.94C248.3 42.14 265.9 38.61 281.34 44.94C283.2 45.7 284.55 47.34 284.95 49.31C285.34 51.28 284.73 53.31 283.31 54.73L261.14 76.9L264.59 84.19L271.88 87.63L294.05 65.47C295.47 64.05 297.51 63.43 299.47 63.83C301.44 64.23 303.08 65.58 303.84 67.44C310.17 82.88 306.64 100.48 294.84 112.28C285.68 121.45 272.95 125.7 260.22 124L247.26 136.97C244.92 139.31 241.12 139.32 238.77 136.97C236.43 134.63 236.42 130.83 238.77 128.48L253.93 113.31C255.37 111.87 257.45 111.25 259.44 111.69C269.22 113.81 279.28 110.86 286.35 103.79C292.34 97.8 295.32 89.71 294.89 81.58L277.36 99.1C275.57 100.89 272.84 101.36 270.55 100.28L257.66 94.19C257.62 94.17 257.58 94.15 257.54 94.13L257.38 94.05C256.22 93.47 255.28 92.53 254.7 91.37L254.62 91.21C254.6 91.17 254.58 91.13 254.56 91.09L248.47 78.2C247.39 75.91 247.86 73.19 249.65 71.4L267.17 53.87C259.06 53.43 250.95 56.43 244.96 62.41C237.9 69.47 234.94 79.53 237.06 89.32C237.49 91.31 236.88 93.39 235.44 94.83L178.19 152.08C176.75 153.52 174.67 154.13 172.68 153.7C162.9 151.58 152.85 154.54 145.78 161.6C139.8 167.58 136.81 175.67 137.24 183.8L154.14 166.9C155.93 165.11 158.66 164.63 160.95 165.72L174 171.89C175.26 172.48 176.27 173.49 176.86 174.75L183.03 187.8C184.11 190.09 183.64 192.82 181.85 194.61L164.95 211.51C173.08 211.94 181.17 208.95 187.15 202.97C194.21 195.91 197.16 185.85 195.05 176.07C194.62 174.08 195.23 172 196.67 170.56L213.01 154.22C215.35 151.88 219.15 151.88 221.5 154.22C223.84 156.56 223.84 160.36 221.5 162.71L207.36 176.85C209.06 189.56 204.8 202.3 195.64 211.46C187.75 219.37 177.23 223.56 166.51 223.57Z" fill="#FF0043"/>
<path d="M300.25 181.48L285.85 167.08C285.85 167.08 285.85 167.07 285.84 167.07C285.83 167.07 285.83 167.07 285.83 167.06L244.51 125.73C237.49 118.71 226.07 118.71 219.05 125.73L218.9 125.88L153.24 60.2101C150.9 57.8701 147.1 57.8701 144.75 60.2101C142.41 62.5501 142.41 66.3501 144.75 68.7001L210.41 134.37L210.27 134.51C203.25 141.53 203.25 152.95 210.27 159.97L251.6 201.3L266 215.7C269.51 219.21 274.12 220.96 278.73 220.96C283.34 220.96 287.95 219.21 291.46 215.7L300.24 206.92C307.27 199.91 307.27 188.49 300.25 181.48ZM218.76 143L223.14 138.62L227.53 134.23C229.87 131.89 233.68 131.89 236.02 134.23L273.11 171.32L255.85 188.58L218.76 151.49C216.42 149.15 216.42 145.34 218.76 143ZM291.76 198.45L282.98 207.23C280.64 209.57 276.83 209.57 274.49 207.23L264.33 197.07L281.59 179.81L291.75 189.97C292.87 191.09 293.49 192.6 293.49 194.21C293.49 195.82 292.89 197.32 291.76 198.45Z" fill="#121331"/>
</svg>
