<svg width="430" height="430" viewBox="0 0 430 430" fill="none" xmlns="http://www.w3.org/2000/svg">
<path d="M137.77 212.9C134.46 212.9 131.77 215.59 131.77 218.9V262.11C131.77 265.42 134.46 268.11 137.77 268.11C141.08 268.11 143.77 265.42 143.77 262.11V218.9C143.77 215.59 141.09 212.9 137.77 212.9Z" fill="#FF0043"/>
<path d="M297.5 400.61L287.92 353.36C287.26 350.11 284.1 348.01 280.85 348.67C277.6 349.33 275.5 352.5 276.16 355.74L285.74 402.99C286.32 405.84 288.82 407.8 291.61 407.8C292 407.8 292.41 407.76 292.81 407.68C296.06 407.03 298.16 403.86 297.5 400.61Z" fill="#FF0043"/>
<path d="M263.9 67.4501L162.98 49.6601C159.71 49.0801 156.6 51.2601 156.03 54.5301C155.45 57.7901 157.63 60.9101 160.9 61.4801L261.82 79.2701C262.17 79.3301 262.52 79.3601 262.87 79.3601C265.73 79.3601 268.26 77.3101 268.77 74.4001C269.34 71.1401 267.17 68.0301 263.9 67.4501Z" fill="#FF0043"/>
<path d="M332.72 229.79H289.49V218.9C289.49 215.59 286.8 212.9 283.49 212.9H206.51L207.21 208.96C208 204.49 211.26 200.96 215.51 199.96C235.24 195.32 250.26 179.43 253.77 159.49L273.6 47.03C273.88 45.46 273.52 43.85 272.61 42.55C271.7 41.25 270.3 40.36 268.74 40.08L167.8 22.29C164.54 21.71 161.42 23.89 160.85 27.16L141.03 139.6C137.55 159.33 146.05 179.29 162.71 190.44C166.3 192.84 168.11 197.25 167.33 201.67L165.35 212.91H115.24C111.93 212.91 109.24 215.6 109.24 218.91V234.52H97.28C93.97 234.52 91.28 237.21 91.28 240.52C91.28 243.83 93.97 246.52 97.28 246.52H109.23V262.13C109.23 265.44 111.92 268.13 115.23 268.13H205.98L202.42 299.6C201.5 307.74 197.82 315.43 192.06 321.25C189.73 323.61 189.75 327.41 192.11 329.74C193.28 330.9 194.81 331.47 196.33 331.47C197.88 331.47 199.42 330.88 200.6 329.69C208.25 321.96 213.13 311.75 214.35 300.95L218.06 268.13H250.35L257.94 303.83C258.14 304.76 258.24 305.7 258.24 306.6C258.24 313.06 253.6 318.51 247.21 319.56C245.6 319.82 244.17 320.73 243.24 322.07C242.31 323.41 241.97 325.07 242.3 326.67L256.21 395.24C257.69 402.53 264.17 407.82 271.61 407.82H308.86C313.65 407.82 318.12 405.67 321.12 401.93C324.12 398.19 325.24 393.36 324.19 388.67L309.65 323.9C308.62 319.32 308.1 314.61 308.1 309.91C308.1 294.49 313.6 279.77 323.64 268.15H332.73C336.04 268.15 338.73 265.46 338.73 262.15V235.8C338.72 232.47 336.03 229.79 332.72 229.79ZM169.38 180.47C156.68 171.96 150.18 156.73 152.84 141.68L171.63 35.14L260.74 50.85L241.95 157.4C239.27 172.62 227.81 184.74 212.76 188.28C203.83 190.38 197.01 197.68 195.39 206.87L194.33 212.9H177.54L179.15 203.74C180.75 194.65 176.91 185.52 169.38 180.47ZM326.72 256.14H320.96C319.3 256.14 317.71 256.83 316.58 258.04C303.37 272.16 296.1 290.57 296.1 309.9C296.1 315.49 296.72 321.08 297.94 326.52L312.48 391.28C312.82 392.8 312.17 393.9 311.75 394.42C311.33 394.94 310.41 395.81 308.85 395.81H271.6C269.84 395.81 268.31 394.56 267.96 392.84L255.14 329.63C264.16 325.73 270.23 316.82 270.23 306.59C270.23 304.86 270.04 303.09 269.67 301.34L261.07 260.88C260.48 258.11 258.03 256.13 255.2 256.13H219.41L221.3 239.38C221.67 236.09 219.3 233.12 216.01 232.74C212.73 232.36 209.75 234.73 209.37 238.03L207.32 256.13H121.21V224.9H199.33H199.34H199.35H277.46V235.78C277.46 239.09 280.15 241.78 283.46 241.78H326.69V256.14H326.72Z" fill="#FFF"/>
</svg>
