<svg width="24" height="24" viewBox="0 0 24 24" fill="none" xmlns="http://www.w3.org/2000/svg">
<g clip-path="url(#clip0_1123_196)">
<path d="M0.999983 -1.90735e-06C1.2652 -1.90735e-06 1.51955 0.105354 1.70709 0.292891C1.89463 0.480427 1.99998 0.734781 1.99998 0.999998C2.00157 2.59081 2.63422 4.11601 3.7591 5.24088C4.88397 6.36576 6.40917 6.99841 7.99998 7H13.83V5.414C13.8301 5.0185 13.9474 4.6319 14.1672 4.30308C14.3869 3.97426 14.6993 3.71798 15.0647 3.56664C15.4301 3.4153 15.8321 3.3757 16.22 3.45283C16.608 3.52997 16.9643 3.72038 17.244 4L23.123 9.879C23.6854 10.4416 24.0013 11.2045 24.0013 12C24.0013 12.7955 23.6854 13.5584 23.123 14.121L17.244 20C16.9643 20.2796 16.608 20.47 16.22 20.5472C15.8321 20.6243 15.4301 20.5847 15.0647 20.4334C14.6993 20.282 14.3869 20.0257 14.1672 19.6969C13.9474 19.3681 13.8301 18.9815 13.83 18.586V17H8.99998C6.61385 16.9974 4.3262 16.0483 2.63894 14.361C0.951691 12.6738 0.00263023 10.3861 -1.71661e-05 8L-1.71661e-05 0.999998C-1.71661e-05 0.734781 0.105339 0.480427 0.292875 0.292891C0.480412 0.105354 0.734766 -1.90735e-06 0.999983 -1.90735e-06ZM15.83 18.586L21.709 12.707C21.8965 12.5195 22.0018 12.2652 22.0018 12C22.0018 11.7348 21.8965 11.4805 21.709 11.293L15.83 5.414V8C15.83 8.26521 15.7246 8.51957 15.5371 8.7071C15.3496 8.89464 15.0952 9 14.83 9H7.99998C6.86439 9.00034 5.7418 8.75842 4.70713 8.29041C3.67247 7.8224 2.74955 7.13906 1.99998 6.286V8C2.0021 9.85586 2.74028 11.6351 4.05257 12.9474C5.36487 14.2597 7.14412 14.9979 8.99998 15L14.83 15C15.0952 15 15.3496 15.1054 15.5371 15.2929C15.7246 15.4804 15.83 15.7348 15.83 16V18.586Z" fill="white"/>
</g>
<defs>
<clipPath id="clip0_1123_196">
<rect width="24" height="24" fill="white" transform="translate(24 24) rotate(-180)"/>
</clipPath>
</defs>
</svg>
